# xmcd
#
# Track frame offsets:
#	150
#	26073
#	42489
#	55679
#	73423
#	95180
#	107033
#	116384
#	133142
#	153603
#	163316
#	170875
#	183203
#	194841
#	206977
#	230179
#	239399
#	248549
#	264780
#	278772
#
# Disc length: 3874 seconds
#
# Revision: 0
# Processed by: cddbd v1.5.2PL0 Copyright (c) Steve Scherf et al.
# Submitted via: dBpowerAMP V4.0
#
DISCID=390f2014
DTITLE=Various Artist - that loving feeling-sacred love-volume 4
DYEAR=1900
DGENRE=
TTITLE0=love dont live here anymore
TTITLE1=flying without wings
TTITLE2=the rose
TTITLE3=heaven
TTITLE4=come what may (from moulin rouge)
TTITLE5=when will i be loved
TTITLE6=aint no sunshine
TTITLE7=I've been loving you too long
TTITLE8=where you are
TTITLE9=love letters in the sand
TTITLE10=cry
TTITLE11=come fly with me
TTITLE12=mona lisa
TTITLE13=It's only a paper moon
TTITLE14=wind beneath my wings
TTITLE15=groovy kind of love
TTITLE16=every beat of my heart
TTITLE17=din't I blow you mind
TTITLE18=dark end of the street
TTITLE19=will you still love me tomorrow
EXTD=
EXTT0=
EXTT1=
EXTT2=
EXTT3=
EXTT4=
EXTT5=
EXTT6=
EXTT7=
EXTT8=
EXTT9=
EXTT10=
EXTT11=
EXTT12=
EXTT13=
EXTT14=
EXTT15=
EXTT16=
EXTT17=
EXTT18=
EXTT19=
PLAYORDER=
